<svg width="48" height="48" viewBox="0 0 48 48" fill="none" xmlns="http://www.w3.org/2000/svg">
<rect width="48" height="48" rx="24" fill="#F3F7FF" fill-opacity="0.2"/>
<path d="M31.3083 30.2748C31.3083 30.5748 31.2417 30.8832 31.1 31.1832C30.9583 31.4832 30.775 31.7665 30.5333 32.0332C30.125 32.4832 29.675 32.8082 29.1667 33.0165C28.6667 33.2248 28.125 33.3332 27.5417 33.3332C26.6917 33.3332 25.7833 33.1332 24.825 32.7248C23.8667 32.3165 22.9083 31.7665 21.9583 31.0748C21 30.3748 20.0917 29.5998 19.225 28.7415C18.3667 27.8748 17.5917 26.9665 16.9 26.0165C16.2167 25.0665 15.6667 24.1165 15.2667 23.1748C14.8667 22.2248 14.6667 21.3165 14.6667 20.4498C14.6667 19.8832 14.7667 19.3415 14.9667 18.8415C15.1667 18.3332 15.4833 17.8665 15.925 17.4498C16.4583 16.9248 17.0417 16.6665 17.6583 16.6665C17.8917 16.6665 18.125 16.7165 18.3333 16.8165C18.55 16.9165 18.7417 17.0665 18.8917 17.2832L20.825 20.0082C20.975 20.2165 21.0833 20.4082 21.1583 20.5915C21.2333 20.7665 21.275 20.9415 21.275 21.0998C21.275 21.2998 21.2167 21.4998 21.1 21.6915C20.9917 21.8832 20.8333 22.0832 20.6333 22.2832L20 22.9415C19.9083 23.0332 19.8667 23.1415 19.8667 23.2748C19.8667 23.3415 19.875 23.3998 19.8917 23.4665C19.9167 23.5332 19.9417 23.5832 19.9583 23.6332C20.1083 23.9082 20.3667 24.2665 20.7333 24.6998C21.1083 25.1332 21.5083 25.5748 21.9417 26.0165C22.3917 26.4582 22.825 26.8665 23.2667 27.2415C23.7 27.6082 24.0583 27.8582 24.3417 28.0082C24.3833 28.0248 24.4333 28.0498 24.4917 28.0748C24.5583 28.0998 24.625 28.1082 24.7 28.1082C24.8417 28.1082 24.95 28.0582 25.0417 27.9665L25.675 27.3415C25.8833 27.1332 26.0833 26.9748 26.275 26.8748C26.4667 26.7582 26.6583 26.6998 26.8667 26.6998C27.025 26.6998 27.1917 26.7332 27.375 26.8082C27.5583 26.8832 27.75 26.9915 27.9583 27.1332L30.7167 29.0915C30.9333 29.2415 31.0833 29.4165 31.175 29.6248C31.2583 29.8332 31.3083 30.0415 31.3083 30.2748Z" stroke="#F9FAFB" stroke-width="1.2" stroke-miterlimit="10"/>
<path d="M28.4167 22.4997C28.4167 21.9997 28.025 21.233 27.4417 20.608C26.9084 20.033 26.2 19.583 25.5 19.583" stroke="#F9FAFB" stroke-width="1.2" stroke-linecap="round" stroke-linejoin="round"/>
<path d="M31.3334 22.4998C31.3334 19.2748 28.725 16.6665 25.5 16.6665" stroke="#F9FAFB" stroke-width="1.2" stroke-linecap="round" stroke-linejoin="round"/>
</svg>
