<svg width="41" height="41" viewBox="0 0 41 41" fill="none" xmlns="http://www.w3.org/2000/svg">
<rect x="0.333984" y="0.625" width="40" height="40" rx="20" fill="white" fill-opacity="0.77"/>
<path d="M17.0052 20.6764C17.0052 18.8339 18.498 17.3398 20.34 17.3398C22.182 17.3398 23.6756 18.8339 23.6756 20.6764C23.6756 22.5189 22.182 24.0129 20.34 24.0129C18.498 24.0129 17.0052 22.5189 17.0052 20.6764ZM15.202 20.6764C15.202 23.5149 17.5023 25.8158 20.34 25.8158C23.1777 25.8158 25.4779 23.5149 25.4779 20.6764C25.4779 17.8378 23.1777 15.5369 20.34 15.5369C17.5023 15.5369 15.202 17.8378 15.202 20.6764ZM24.4806 15.3331C24.4805 15.5707 24.5509 15.8029 24.6827 16.0005C24.8146 16.1981 25.002 16.3521 25.2214 16.4431C25.4408 16.5341 25.6822 16.558 25.9151 16.5117C26.1481 16.4655 26.3621 16.3512 26.53 16.1832C26.698 16.0153 26.8125 15.8014 26.8589 15.5684C26.9053 15.3354 26.8816 15.0939 26.7908 14.8744C26.7001 14.6549 26.5462 14.4673 26.3488 14.3352C26.1514 14.2032 25.9193 14.1327 25.6818 14.1326H25.6813C25.363 14.1327 25.0578 14.2592 24.8326 14.4843C24.6075 14.7094 24.4809 15.0147 24.4806 15.3331ZM16.2976 28.8234C15.322 28.7789 14.7918 28.6164 14.4394 28.4791C13.9722 28.2971 13.6389 28.0805 13.2885 27.7304C12.938 27.3803 12.7211 27.0472 12.54 26.5799C12.4027 26.2276 12.2402 25.6971 12.1958 24.7212C12.1473 23.6662 12.1376 23.3493 12.1376 20.6764C12.1376 18.0036 12.1481 17.6876 12.1958 16.6317C12.2402 15.6558 12.4039 15.1263 12.54 14.773C12.7219 14.3057 12.9385 13.9723 13.2885 13.6217C13.6384 13.2712 13.9714 13.0542 14.4394 12.873C14.7916 12.7356 15.322 12.5731 16.2976 12.5287C17.3523 12.4802 17.6691 12.4705 20.34 12.4705C23.0109 12.4705 23.328 12.481 24.3836 12.5287C25.3592 12.5732 25.8885 12.7369 26.2418 12.873C26.7089 13.0542 27.0422 13.2716 27.3927 13.6217C27.7431 13.9718 27.9593 14.3057 28.1411 14.773C28.2785 15.1253 28.441 15.6558 28.4853 16.6317C28.5339 17.6876 28.5435 18.0036 28.5435 20.6764C28.5435 23.3493 28.5339 23.6653 28.4853 24.7212C28.4409 25.6971 28.2776 26.2275 28.1411 26.5799C27.9593 27.0472 27.7427 27.3806 27.3927 27.7304C27.0427 28.0801 26.7089 28.2971 26.2418 28.4791C25.8896 28.6165 25.3592 28.779 24.3836 28.8234C23.3289 28.8719 23.0121 28.8816 20.34 28.8816C17.6679 28.8816 17.352 28.8719 16.2976 28.8234ZM16.2147 10.7281C15.1495 10.7766 14.4216 10.9456 13.786 11.193C13.1277 11.4485 12.5704 11.7913 12.0135 12.3475C11.4566 12.9036 11.1148 13.462 10.8593 14.1205C10.612 14.7567 10.4431 15.4844 10.3946 16.5499C10.3453 17.6171 10.334 17.9583 10.334 20.6764C10.334 23.3945 10.3453 23.7356 10.3946 24.8028C10.4431 25.8684 10.612 26.596 10.8593 27.2323C11.1148 27.8904 11.4567 28.4494 12.0135 29.0053C12.5703 29.5612 13.1277 29.9035 13.786 30.1598C14.4228 30.4072 15.1495 30.5761 16.2147 30.6246C17.2822 30.6732 17.6227 30.6853 20.34 30.6853C23.0573 30.6853 23.3984 30.674 24.4653 30.6246C25.5305 30.5761 26.2579 30.4072 26.894 30.1598C27.5519 29.9035 28.1096 29.5615 28.6665 29.0053C29.2234 28.4491 29.5645 27.8904 29.8206 27.2323C30.068 26.596 30.2377 25.8683 30.2854 24.8028C30.3339 23.7348 30.3452 23.3945 30.3452 20.6764C30.3452 17.9583 30.3339 17.6171 30.2854 16.5499C30.2369 15.4843 30.068 14.7563 29.8206 14.1205C29.5645 13.4624 29.2225 12.9045 28.6665 12.3475C28.1105 11.7904 27.5519 11.4485 26.8948 11.193C26.2579 10.9456 25.5305 10.7758 24.4661 10.7281C23.3992 10.6796 23.0581 10.6675 20.3408 10.6675C17.6235 10.6675 17.2822 10.6788 16.2147 10.7281Z" fill="#101828"/>
</svg>
