<svg width="24" height="24" viewBox="0 0 24 24" fill="none" xmlns="http://www.w3.org/2000/svg">
<g clip-path="url(#clip0_4591_7274)">
<path d="M14.505 17.5204L13.2759 13.8328L10.4634 19.4578L8.88 14.7079L8.07235 15.5156H2.97844C3.55233 19.0984 6.27745 24 9.89063 24C10.5938 24 11.3016 23.805 12 23.4196C12.6984 23.805 13.4063 24 14.1094 24C17.7219 24 20.4473 19.1006 21.0216 15.5156H16.5098L14.505 17.5204Z" fill="#53ADED"/>
<path d="M9.495 12.1045L10.7241 15.7922L13.5366 10.1672L15.12 14.917L15.9277 14.1094H21.1406C21.1406 10.2323 17.9864 7.07812 14.1094 7.07812C13.6439 7.07812 13.1784 7.12969 12.7031 7.23469V5.625H13.4062C16.1203 5.625 18.3281 3.41719 18.3281 0.703125V0H16.2188C14.5341 0 13.0444 0.850781 12.1575 2.145C12.1575 2.14509 12.1574 2.14523 12.1573 2.14533C11.432 0.865547 10.0575 0 8.48438 0V1.40625C10.0352 1.40625 11.2969 2.66794 11.2969 4.21875V7.23469C10.8216 7.12969 10.3561 7.07812 9.89062 7.07812C6.01359 7.07812 2.85938 10.2323 2.85938 14.1094H7.49016L9.495 12.1045Z" fill="#0E74BC"/>
</g>
<defs>
<clipPath id="clip0_4591_7274">
<rect width="24" height="24" fill="white"/>
</clipPath>
</defs>
</svg>
