<svg width="21" height="20" viewBox="0 0 21 20" fill="none" xmlns="http://www.w3.org/2000/svg">
<path fill-rule="evenodd" clip-rule="evenodd" d="M18.8333 10.0001C18.8333 14.6025 15.1024 18.3334 10.5 18.3334C5.89763 18.3334 2.16667 14.6025 2.16667 10.0001C2.16667 5.39771 5.89763 1.66675 10.5 1.66675C15.1024 1.66675 18.8333 5.39771 18.8333 10.0001ZM13.8586 7.47481C14.1027 7.71888 14.1027 8.11461 13.8586 8.35869L9.69195 12.5254C9.44787 12.7694 9.05214 12.7694 8.80806 12.5254L7.1414 10.8587C6.89732 10.6146 6.89732 10.2189 7.1414 9.97481C7.38547 9.73073 7.7812 9.73073 8.02528 9.97481L9.25001 11.1995L11.1124 9.33717L12.9747 7.47481C13.2188 7.23073 13.6145 7.23073 13.8586 7.47481Z" fill="#0E74BC"/>
</svg>
