<svg width="25" height="24" viewBox="0 0 25 24" fill="none" xmlns="http://www.w3.org/2000/svg">
<path d="M6.75993 21.3884H6.5C5.55719 21.3884 5.08579 21.3884 4.79289 21.0955C4.5 20.8026 4.5 20.3312 4.5 19.3884V18.2764C4.5 17.7579 4.5 17.4987 4.63318 17.2672C4.76636 17.0356 4.96727 16.9188 5.3691 16.6851C8.01457 15.1464 11.7715 14.2803 14.2791 15.7759C14.4475 15.8764 14.5991 15.9977 14.7285 16.1431C15.2866 16.77 15.246 17.7161 14.6028 18.2775C14.4669 18.396 14.3222 18.486 14.1764 18.5172C14.2962 18.5033 14.411 18.4874 14.5206 18.4699C15.432 18.3245 16.197 17.8375 16.8974 17.3084L18.7046 15.9433C19.3417 15.462 20.2873 15.4619 20.9245 15.943C21.4982 16.3762 21.6736 17.0894 21.3109 17.6707C20.888 18.3487 20.2921 19.216 19.7199 19.7459C19.1469 20.2766 18.2939 20.7504 17.5975 21.0865C16.826 21.4589 15.9738 21.6734 15.1069 21.8138C13.3488 22.0983 11.5166 22.0549 9.77633 21.6964C8.79253 21.4937 7.77079 21.3884 6.75993 21.3884Z" fill="#0E74BC"/>
<path d="M11.3613 3.36335C11.8679 2.45445 12.1213 2 12.5 2C12.8787 2 13.1321 2.45445 13.6387 3.36335L13.7698 3.59849C13.9138 3.85677 13.9858 3.98591 14.098 4.07112C14.2103 4.15633 14.3501 4.18796 14.6296 4.25122L14.8842 4.30881C15.8681 4.53142 16.36 4.64273 16.477 5.01909C16.5941 5.39546 16.2587 5.78763 15.588 6.57197L15.4144 6.77489C15.2238 6.99777 15.1285 7.10922 15.0857 7.24709C15.0428 7.38496 15.0572 7.53365 15.086 7.83102L15.1122 8.10176C15.2136 9.14824 15.2644 9.67148 14.9579 9.90409C14.6515 10.1367 14.1909 9.92462 13.2697 9.50047L13.0314 9.39074C12.7696 9.27021 12.6387 9.20994 12.5 9.20994C12.3613 9.20994 12.2304 9.27021 11.9686 9.39074L11.7303 9.50047C10.8091 9.92462 10.3485 10.1367 10.0421 9.90409C9.73565 9.67148 9.78635 9.14824 9.88776 8.10176L9.91399 7.83102C9.94281 7.53364 9.95722 7.38496 9.91435 7.24709C9.87147 7.10922 9.77617 6.99777 9.58557 6.77489L9.41204 6.57197C8.7413 5.78763 8.40593 5.39546 8.52297 5.01909C8.64001 4.64273 9.13194 4.53142 10.1158 4.30881L10.3704 4.25122C10.6499 4.18796 10.7897 4.15633 10.902 4.07112C11.0142 3.98591 11.0862 3.85677 11.2302 3.59849L11.3613 3.36335Z" fill="#53ADED"/>
<path d="M19.9306 7.68167C20.184 7.22722 20.3106 7 20.5 7C20.6894 7 20.816 7.22723 21.0694 7.68167L21.1349 7.79925C21.2069 7.92839 21.2429 7.99296 21.299 8.03556C21.3551 8.07817 21.425 8.09398 21.5648 8.12561L21.6921 8.15441C22.184 8.26571 22.43 8.32136 22.4885 8.50955C22.547 8.69773 22.3794 8.89381 22.044 9.28598L21.9572 9.38744C21.8619 9.49889 21.8143 9.55461 21.7928 9.62354C21.7714 9.69248 21.7786 9.76682 21.793 9.91551L21.8061 10.0509C21.8568 10.5741 21.8822 10.8357 21.729 10.952C21.5758 11.0683 21.3455 10.9623 20.8849 10.7502L20.7657 10.6954C20.6348 10.6351 20.5694 10.605 20.5 10.605C20.4306 10.605 20.3652 10.6351 20.2343 10.6954L20.1151 10.7502C19.6545 10.9623 19.4242 11.0683 19.271 10.952C19.1178 10.8357 19.1432 10.5741 19.1939 10.0509L19.207 9.91551C19.2214 9.76682 19.2286 9.69248 19.2072 9.62354C19.1857 9.55461 19.1381 9.49889 19.0428 9.38744L18.956 9.28598C18.6207 8.89381 18.453 8.69773 18.5115 8.50955C18.57 8.32136 18.816 8.26571 19.3079 8.15441L19.4352 8.12561C19.575 8.09398 19.6449 8.07817 19.701 8.03556C19.7571 7.99296 19.7931 7.92839 19.8651 7.79925L19.9306 7.68167Z" fill="#53ADED"/>
<path d="M3.93063 7.68167C4.18396 7.22722 4.31063 7 4.5 7C4.68937 7 4.81604 7.22723 5.06937 7.68167L5.13491 7.79925C5.2069 7.92839 5.24289 7.99296 5.29901 8.03556C5.35513 8.07817 5.42503 8.09398 5.56482 8.12561L5.69209 8.15441C6.18403 8.26571 6.43 8.32136 6.48852 8.50955C6.54704 8.69773 6.37935 8.89381 6.04398 9.28598L5.95722 9.38744C5.86191 9.49889 5.81426 9.55461 5.79283 9.62354C5.77139 9.69248 5.77859 9.76682 5.793 9.91551L5.80612 10.0509C5.85682 10.5741 5.88218 10.8357 5.72897 10.952C5.57576 11.0683 5.34547 10.9623 4.88487 10.7502L4.7657 10.6954C4.63481 10.6351 4.56937 10.605 4.5 10.605C4.43063 10.605 4.36519 10.6351 4.2343 10.6954L4.11513 10.7502C3.65454 10.9623 3.42424 11.0683 3.27103 10.952C3.11782 10.8357 3.14318 10.5741 3.19388 10.0509L3.207 9.91551C3.22141 9.76682 3.22861 9.69248 3.20717 9.62354C3.18574 9.55461 3.13809 9.49889 3.04278 9.38744L2.95602 9.28598C2.62065 8.89381 2.45296 8.69773 2.51148 8.50955C2.57 8.32136 2.81597 8.26571 3.30791 8.15441L3.43518 8.12561C3.57497 8.09398 3.64487 8.07817 3.70099 8.03556C3.75711 7.99296 3.79311 7.92839 3.86509 7.79925L3.93063 7.68167Z" fill="#53ADED"/>
</svg>
