<svg xmlns="http://www.w3.org/2000/svg" viewBox="0 0 20 20" height="20" width="20"><g xmlns="http://www.w3.org/2000/svg" transform="matrix(-1 0 0 -1 20 20)"><path fill-rule="evenodd" clip-rule="evenodd" d="M3.69247 5.42652C3.91711 5.16444 4.31167 5.13409 4.57375 5.35873L10.0003 10.0101L15.4269 5.35873C15.689 5.13409 16.0836 5.16444 16.3082 5.42652C16.5328 5.6886 16.5025 6.08316 16.2404 6.3078L10.4071 11.3078C10.173 11.5084 9.82765 11.5084 9.59359 11.3078L3.76026 6.3078C3.49818 6.08316 3.46783 5.6886 3.69247 5.42652ZM3.69247 8.75985C3.91711 8.49777 4.31167 8.46742 4.57375 8.69206L10.0003 13.3434L15.4269 8.69206C15.689 8.46742 16.0836 8.49777 16.3082 8.75985C16.5328 9.02193 16.5025 9.41649 16.2404 9.64113L10.4071 14.6411C10.173 14.8418 9.82765 14.8418 9.59359 14.6411L3.76026 9.64113C3.49818 9.41649 3.46783 9.02193 3.69247 8.75985Z" fill="#1C274C" /></g></svg>