<svg width="25" height="24" viewBox="0 0 25 24" fill="none" xmlns="http://www.w3.org/2000/svg">
<path d="M14.5 4H10.5C6.72876 4 4.84315 4 3.67157 5.17157C2.82803 6.01511 2.59185 7.22882 2.52572 9.25H22.4743C22.4082 7.22882 22.172 6.01511 21.3284 5.17157C20.1569 4 18.2712 4 14.5 4Z" fill="#0E74BC"/>
<path fill-rule="evenodd" clip-rule="evenodd" d="M14.5 20H10.5C6.72876 20 4.84315 20 3.67157 18.8284C2.5 17.6569 2.5 15.7712 2.5 12C2.5 11.5581 2.5 11.142 2.50189 10.75H22.4981C22.5 11.142 22.5 11.5581 22.5 12C22.5 15.7712 22.5 17.6569 21.3284 18.8284C20.1569 20 18.2712 20 14.5 20ZM16.5447 12.25C16.9776 12.2499 17.3744 12.2499 17.6972 12.2933C18.0527 12.3411 18.4284 12.4535 18.7374 12.7626C19.0465 13.0716 19.1589 13.4473 19.2067 13.8028C19.2501 14.1256 19.2501 14.5224 19.25 14.9553V15.0447C19.2501 15.4776 19.2501 15.8744 19.2067 16.1972C19.1589 16.5527 19.0465 16.9284 18.7374 17.2374C18.4284 17.5465 18.0527 17.6589 17.6972 17.7067C17.3744 17.7501 16.9776 17.7501 16.5447 17.75L16.5 17.75L16.4553 17.75C16.0224 17.7501 15.6256 17.7501 15.3028 17.7067C14.9473 17.6589 14.5716 17.5465 14.2626 17.2374C13.9535 16.9284 13.8411 16.5527 13.7933 16.1972C13.7499 15.8744 13.7499 15.4776 13.75 15.0447L13.75 15L13.75 14.9553C13.7499 14.5224 13.7499 14.1256 13.7933 13.8028C13.8411 13.4473 13.9535 13.0716 14.2626 12.7626C14.5716 12.4535 14.9473 12.3411 15.3028 12.2933C15.6256 12.2499 16.0224 12.2499 16.4553 12.25H16.5447ZM5.75 13.5C5.75 13.0858 6.08579 12.75 6.5 12.75H8.5C8.91421 12.75 9.25 13.0858 9.25 13.5C9.25 13.9142 8.91421 14.25 8.5 14.25H6.5C6.08579 14.25 5.75 13.9142 5.75 13.5ZM5.75 16.5C5.75 16.0858 6.08579 15.75 6.5 15.75H10.5C10.9142 15.75 11.25 16.0858 11.25 16.5C11.25 16.9142 10.9142 17.25 10.5 17.25H6.5C6.08579 17.25 5.75 16.9142 5.75 16.5Z" fill="#0E74BC"/>
<path d="M15.3233 13.8232L15.3257 13.8219C15.3276 13.8209 15.3309 13.8192 15.336 13.8172C15.3577 13.8082 15.4061 13.7929 15.5027 13.7799C15.7134 13.7516 16.0074 13.75 16.5 13.75C16.9926 13.75 17.2866 13.7516 17.4973 13.7799C17.5939 13.7929 17.6423 13.8082 17.664 13.8172C17.6691 13.8192 17.6724 13.8209 17.6743 13.8219L17.6768 13.8232L17.6781 13.8257C17.6791 13.8276 17.6808 13.8309 17.6828 13.836C17.6918 13.8577 17.7071 13.9061 17.7201 14.0027C17.7484 14.2134 17.75 14.5074 17.75 15C17.75 15.4926 17.7484 15.7866 17.7201 15.9973C17.7071 16.0939 17.6918 16.1423 17.6828 16.164C17.6808 16.1691 17.6791 16.1724 17.6781 16.1743L17.6768 16.1768L17.6743 16.1781C17.6724 16.1791 17.6691 16.1808 17.664 16.1828C17.6423 16.1918 17.5939 16.2071 17.4973 16.2201C17.2866 16.2484 16.9926 16.25 16.5 16.25C16.0074 16.25 15.7134 16.2484 15.5027 16.2201C15.4061 16.2071 15.3577 16.1918 15.336 16.1828C15.3309 16.1808 15.3276 16.1791 15.3257 16.1781L15.3232 16.1768L15.3219 16.1743C15.3209 16.1724 15.3192 16.1691 15.3172 16.164C15.3082 16.1423 15.2929 16.0939 15.2799 15.9973C15.2516 15.7866 15.25 15.4926 15.25 15C15.25 14.5074 15.2516 14.2134 15.2799 14.0027C15.2929 13.9061 15.3082 13.8577 15.3172 13.836C15.3192 13.8309 15.3209 13.8276 15.3219 13.8257L15.3233 13.8232Z" fill="#0E74BC"/>
</svg>
