<?xml version="1.0" encoding="UTF-8"?>
<svg version="1.1" xmlns="http://www.w3.org/2000/svg" width="48" height="48">
<path d="M0 0 C6.09300852 3.34875587 9.57769094 8.54557282 11.75 15.0625 C12.72566513 22.65874997 11.37409096 28.88641529 6.75 35.0625 C0.82555283 40.17765316 -4.67085592 42.52006655 -12.48828125 42.39453125 C-18.37467709 41.68683161 -23.28443449 39.33904748 -27.17578125 34.83203125 C-31.61688399 28.33466614 -33.19486472 22.92155129 -32.25 15.0625 C-30.11610339 7.95298104 -26.63858711 3.91774104 -20.3359375 0.12109375 C-13.71399261 -3.23948128 -6.7199795 -2.9584176 0 0 Z M-24.625 8.5 C-27.81851714 13.53593087 -29.19423375 18.0567342 -28.25 24.0625 C-27.14718758 26.8770691 -25.79587074 29.46764554 -24.25 32.0625 C-23.693125 31.27875 -23.13625 30.495 -22.5625 29.6875 C-19.5220909 26.23622481 -17.48387788 25.27204298 -12.91796875 24.84375 C-7.61429163 24.65291304 -3.76066804 24.98204378 0.75 28.0625 C2.625 30.25 2.625 30.25 3.75 32.0625 C6.89946751 26.77589383 8.94081362 22.26916491 7.75 16.0625 C5.58298026 9.71208921 2.37157757 6.0201095 -3.5625 2.8125 C-11.83519677 0.50384044 -18.67090932 2.38922273 -24.625 8.5 Z M-20.25 33.0625 C-19.58131686 36.17582248 -19.58131686 36.17582248 -17.1875 37.25 C-11.8102269 38.73733086 -7.80769316 38.73008278 -2.75 36.5625 C-1.5125 35.82 -1.5125 35.82 -0.25 35.0625 C-1.49976756 31.40933329 -1.92098753 30.28184164 -5.25 28.0625 C-12.03424537 26.97012151 -16.07912757 27.50133676 -20.25 33.0625 Z " fill="#0D73BB" transform="translate(34.25,3.9375)"/>
<path d="M0 0 C4.0743356 0.84881992 5.54405875 2.30225596 8 5.625 C8.625 8.625 8.625 8.625 8 11.625 C5.54405875 14.94774404 4.0743356 16.40118008 0 17.25 C-4.0743356 16.40118008 -5.54405875 14.94774404 -8 11.625 C-8.625 8.625 -8.625 8.625 -8 5.625 C-5.54405875 2.30225596 -4.0743356 0.84881992 0 0 Z M-2 4.625 C-2.66 5.285 -3.32 5.945 -4 6.625 C-3.67958603 9.22780568 -3.67958603 9.22780568 -3 11.625 C-0.60280568 12.30458603 -0.60280568 12.30458603 2 12.625 C2.66 11.965 3.32 11.305 4 10.625 C3.67958603 8.02219432 3.67958603 8.02219432 3 5.625 C0.60280568 4.94541397 0.60280568 4.94541397 -2 4.625 Z " fill="#0D73BB" transform="translate(24,9.375)"/>
</svg>
