<?xml version="1.0" encoding="UTF-8"?>
<svg version="1.1" xmlns="http://www.w3.org/2000/svg" width="48" height="48">
<path d="M0 0 C1.8871875 0.00773437 1.8871875 0.00773437 3.8125 0.015625 C5.070625 0.01046875 6.32875 0.0053125 7.625 0 C10.8125 0.265625 10.8125 0.265625 12.8125 2.265625 C13.07128906 4.11328125 13.07128906 4.11328125 13.078125 6.328125 C13.08199219 7.52308594 13.08199219 7.52308594 13.0859375 8.7421875 C13.07820313 9.57492188 13.07046875 10.40765625 13.0625 11.265625 C13.07023437 12.09835938 13.07796875 12.93109375 13.0859375 13.7890625 C13.08335938 14.58570313 13.08078125 15.38234375 13.078125 16.203125 C13.07586914 16.93402344 13.07361328 17.66492188 13.07128906 18.41796875 C12.8125 20.265625 12.8125 20.265625 10.8125 22.265625 C7.625 22.53125 7.625 22.53125 3.8125 22.515625 C2.554375 22.52078125 1.29625 22.5259375 0 22.53125 C-3.1875 22.265625 -3.1875 22.265625 -5.1875 20.265625 C-5.44628906 18.41796875 -5.44628906 18.41796875 -5.453125 16.203125 C-5.45570312 15.40648437 -5.45828125 14.60984375 -5.4609375 13.7890625 C-5.45320312 12.95632812 -5.44546875 12.12359375 -5.4375 11.265625 C-5.44523438 10.43289062 -5.45296875 9.60015625 -5.4609375 8.7421875 C-5.45835938 7.94554687 -5.45578125 7.14890625 -5.453125 6.328125 C-5.45086914 5.59722656 -5.44861328 4.86632812 -5.44628906 4.11328125 C-4.94711405 0.54936 -3.35121912 0.27926826 0 0 Z M-1.1875 5.265625 C-1.28623816 7.26362072 -1.31721799 9.26519658 -1.3125 11.265625 C-1.31507812 12.35875 -1.31765625 13.451875 -1.3203125 14.578125 C-1.49297755 17.18392854 -1.49297755 17.18392854 -0.1875 18.265625 C1.68571948 18.42616315 1.68571948 18.42616315 3.8125 18.390625 C4.534375 18.39320312 5.25625 18.39578125 6 18.3984375 C7.83339415 18.46257776 7.83339415 18.46257776 8.8125 17.265625 C8.91123816 15.26762928 8.94221799 13.26605342 8.9375 11.265625 C8.94007812 10.1725 8.94265625 9.079375 8.9453125 7.953125 C9.11797755 5.34732146 9.11797755 5.34732146 7.8125 4.265625 C5.93928052 4.10508685 5.93928052 4.10508685 3.8125 4.140625 C3.090625 4.13804688 2.36875 4.13546875 1.625 4.1328125 C-0.20839415 4.06867224 -0.20839415 4.06867224 -1.1875 5.265625 Z " fill="#0D73BB" transform="translate(9.1875,21.734375)"/>
<path d="M0 0 C1.8871875 0.00773438 1.8871875 0.00773438 3.8125 0.015625 C5.070625 0.01046875 6.32875 0.0053125 7.625 0 C10.8125 0.265625 10.8125 0.265625 12.8125 2.265625 C13.07128906 4.11328125 13.07128906 4.11328125 13.078125 6.328125 C13.08199219 7.52308594 13.08199219 7.52308594 13.0859375 8.7421875 C13.07820313 9.57492187 13.07046875 10.40765625 13.0625 11.265625 C13.07023437 12.09835937 13.07796875 12.93109375 13.0859375 13.7890625 C13.08335938 14.58570313 13.08078125 15.38234375 13.078125 16.203125 C13.07586914 16.93402344 13.07361328 17.66492188 13.07128906 18.41796875 C12.8125 20.265625 12.8125 20.265625 10.8125 22.265625 C7.625 22.53125 7.625 22.53125 3.8125 22.515625 C2.554375 22.52078125 1.29625 22.5259375 0 22.53125 C-3.1875 22.265625 -3.1875 22.265625 -5.1875 20.265625 C-5.44628906 18.41796875 -5.44628906 18.41796875 -5.453125 16.203125 C-5.45570312 15.40648437 -5.45828125 14.60984375 -5.4609375 13.7890625 C-5.45320313 12.95632812 -5.44546875 12.12359375 -5.4375 11.265625 C-5.44523437 10.43289063 -5.45296875 9.60015625 -5.4609375 8.7421875 C-5.45835938 7.94554687 -5.45578125 7.14890625 -5.453125 6.328125 C-5.45086914 5.59722656 -5.44861328 4.86632812 -5.44628906 4.11328125 C-4.94711405 0.54936 -3.35121912 0.27926826 0 0 Z M-1.1875 5.265625 C-1.28623816 7.26362072 -1.31721799 9.26519658 -1.3125 11.265625 C-1.31507812 12.35875 -1.31765625 13.451875 -1.3203125 14.578125 C-1.49297755 17.18392854 -1.49297755 17.18392854 -0.1875 18.265625 C1.68571948 18.42616315 1.68571948 18.42616315 3.8125 18.390625 C4.534375 18.39320312 5.25625 18.39578125 6 18.3984375 C7.83339415 18.46257776 7.83339415 18.46257776 8.8125 17.265625 C8.91123816 15.26762928 8.94221799 13.26605342 8.9375 11.265625 C8.94007812 10.1725 8.94265625 9.079375 8.9453125 7.953125 C9.11797755 5.34732146 9.11797755 5.34732146 7.8125 4.265625 C5.93928052 4.10508685 5.93928052 4.10508685 3.8125 4.140625 C3.090625 4.13804688 2.36875 4.13546875 1.625 4.1328125 C-0.20839415 4.06867224 -0.20839415 4.06867224 -1.1875 5.265625 Z " fill="#0D73BB" transform="translate(31.1875,3.734375)"/>
<path d="M0 0 C1.8871875 0.00773437 1.8871875 0.00773437 3.8125 0.015625 C5.070625 0.01046875 6.32875 0.0053125 7.625 0 C10.8125 0.265625 10.8125 0.265625 12.8125 2.265625 C13.078125 5.015625 13.078125 5.015625 13.0625 8.265625 C13.06765625 9.338125 13.0728125 10.410625 13.078125 11.515625 C12.8125 14.265625 12.8125 14.265625 10.8125 16.265625 C7.625 16.53125 7.625 16.53125 3.8125 16.515625 C2.554375 16.52078125 1.29625 16.5259375 0 16.53125 C-3.1875 16.265625 -3.1875 16.265625 -5.1875 14.265625 C-5.453125 11.515625 -5.453125 11.515625 -5.4375 8.265625 C-5.44265625 7.193125 -5.4478125 6.120625 -5.453125 5.015625 C-5.05676368 0.91211957 -4.0550926 0.33792438 0 0 Z M-1.1875 5.265625 C-1.35416667 8.265625 -1.35416667 8.265625 -1.1875 11.265625 C-0.20839415 12.46257776 -0.20839415 12.46257776 1.625 12.3984375 C2.346875 12.39585938 3.06875 12.39328125 3.8125 12.390625 C4.534375 12.39320312 5.25625 12.39578125 6 12.3984375 C7.83339415 12.46257776 7.83339415 12.46257776 8.8125 11.265625 C8.97916667 8.265625 8.97916667 8.265625 8.8125 5.265625 C7.83339415 4.06867224 7.83339415 4.06867224 6 4.1328125 C5.278125 4.13539062 4.55625 4.13796875 3.8125 4.140625 C3.090625 4.13804688 2.36875 4.13546875 1.625 4.1328125 C-0.20839415 4.06867224 -0.20839415 4.06867224 -1.1875 5.265625 Z " fill="#0D73BB" transform="translate(31.1875,27.734375)"/>
<path d="M0 0 C1.8871875 0.00773438 1.8871875 0.00773438 3.8125 0.015625 C5.070625 0.01046875 6.32875 0.0053125 7.625 0 C10.8125 0.265625 10.8125 0.265625 12.8125 2.265625 C13.078125 5.015625 13.078125 5.015625 13.0625 8.265625 C13.06765625 9.338125 13.0728125 10.410625 13.078125 11.515625 C12.8125 14.265625 12.8125 14.265625 10.8125 16.265625 C7.625 16.53125 7.625 16.53125 3.8125 16.515625 C2.554375 16.52078125 1.29625 16.5259375 0 16.53125 C-3.1875 16.265625 -3.1875 16.265625 -5.1875 14.265625 C-5.453125 11.515625 -5.453125 11.515625 -5.4375 8.265625 C-5.44265625 7.193125 -5.4478125 6.120625 -5.453125 5.015625 C-5.05676368 0.91211957 -4.0550926 0.33792438 0 0 Z M-1.1875 5.265625 C-1.35416667 8.265625 -1.35416667 8.265625 -1.1875 11.265625 C-0.20839415 12.46257776 -0.20839415 12.46257776 1.625 12.3984375 C2.346875 12.39585938 3.06875 12.39328125 3.8125 12.390625 C4.534375 12.39320312 5.25625 12.39578125 6 12.3984375 C7.83339415 12.46257776 7.83339415 12.46257776 8.8125 11.265625 C8.97916667 8.265625 8.97916667 8.265625 8.8125 5.265625 C7.83339415 4.06867224 7.83339415 4.06867224 6 4.1328125 C5.278125 4.13539062 4.55625 4.13796875 3.8125 4.140625 C3.090625 4.13804688 2.36875 4.13546875 1.625 4.1328125 C-0.20839415 4.06867224 -0.20839415 4.06867224 -1.1875 5.265625 Z " fill="#0D73BB" transform="translate(9.1875,3.734375)"/>
</svg>
