<svg width="64" height="64" viewBox="0 0 64 64" fill="none" xmlns="http://www.w3.org/2000/svg">
<path fill-rule="evenodd" clip-rule="evenodd" d="M48.2423 6.79671C46.7693 5.97191 45.2011 5.88882 43.5434 6.09601C41.9689 6.29279 40.0532 6.7907 37.7511 7.38906L32.3691 8.78774C30.0679 9.38568 28.1519 9.88356 26.6859 10.4771C25.1445 11.1011 23.8118 11.9396 22.9473 13.3919C22.0774 14.8533 21.991 16.4156 22.2078 18.0474C22.4122 19.5859 22.9281 21.453 23.5427 23.6774L24.9896 28.9144C25.6043 31.1399 26.12 33.0067 26.7356 34.4372C27.3893 35.956 28.2626 37.249 29.7442 38.0787C31.2171 38.9035 32.7854 38.9866 34.4431 38.7794C36.0176 38.5826 37.9332 38.0847 40.2353 37.4864L45.6175 36.0877C47.9186 35.4897 49.8346 34.9918 51.3005 34.3983C52.8419 33.7743 54.1747 32.9358 55.0391 31.4836C55.9091 30.0221 55.9955 28.4598 55.7786 26.828C55.5742 25.2895 55.0583 23.4224 54.4437 21.198L52.9969 15.961C52.3822 13.7355 51.8665 11.8687 51.2509 10.4382C50.5971 8.91939 49.7239 7.62638 48.2423 6.79671ZM38.6266 11.2944C41.0931 10.6534 42.7549 10.2257 44.0395 10.0651C45.2705 9.91127 45.8596 10.0469 46.288 10.2868C46.7076 10.5218 47.1084 10.9315 47.5767 12.0196C48.0706 13.1672 48.5166 14.7649 49.1787 17.1613L50.5505 22.1268C51.2127 24.5238 51.6498 26.123 51.8135 27.3548C51.9689 28.5248 51.8298 29.0549 51.602 29.4375C51.3688 29.8294 50.9459 30.2265 49.7994 30.6907C48.6055 31.1741 46.9465 31.6094 44.4795 32.2505L39.3599 33.581C36.8934 34.222 35.2316 34.6497 33.947 34.8103C32.716 34.9641 32.1269 34.8285 31.6985 34.5886C31.2788 34.3536 30.8781 33.9439 30.4098 32.8558C29.9159 31.7083 29.4698 30.1105 28.8078 27.7141L27.436 22.7486C26.7738 20.3517 26.3367 18.7525 26.173 17.5206C26.0176 16.3506 26.1567 15.8205 26.3845 15.4379C26.6177 15.0461 27.0406 14.6489 28.187 14.1847C29.381 13.7013 31.0399 13.266 33.507 12.6249L38.6266 11.2944Z" fill="#F9FAFB"/>
<path fill-rule="evenodd" clip-rule="evenodd" d="M8.5352 12.5992C7.47084 12.3039 6.36861 12.9273 6.07331 13.9917C5.778 15.0561 6.40145 16.1583 7.46581 16.4536L12.009 17.7141C13.1439 18.029 13.9891 18.8863 14.2778 19.9314L19.4813 38.7664C19.2814 38.8057 19.0816 38.8512 18.8821 38.9031C13.61 40.2732 10.3884 45.5767 11.8356 50.8154C13.2759 56.0288 18.7524 59.0357 24.0036 57.671C28.5992 56.4767 31.6367 52.2939 31.3822 47.7704L53.8369 41.9349C54.906 41.657 55.5474 40.5652 55.2695 39.4961C54.9917 38.4271 53.8998 37.7856 52.8308 38.0635L30.3291 43.9112C28.9735 41.2783 26.4839 39.4472 23.645 38.8165L18.1334 18.8662C17.4584 16.4229 15.5234 14.5381 13.0784 13.8597L8.5352 12.5992ZM19.8882 42.7745C23.1195 41.9347 26.362 43.8102 27.1946 46.8239C28.0202 49.8123 26.2079 52.9653 22.9975 53.7996C19.7663 54.6393 16.5238 52.7639 15.6912 49.7502C14.8656 46.7618 16.6778 43.6088 19.8882 42.7745Z" fill="#F9FAFB"/>
</svg>
