<svg width="65" height="64" viewBox="0 0 65 64" fill="none" xmlns="http://www.w3.org/2000/svg">
<path fill-rule="evenodd" clip-rule="evenodd" d="M32.3327 3.3335C33.4373 3.3335 34.3327 4.22893 34.3327 5.3335V8.75134C45.6239 9.70985 54.623 18.709 55.5815 30.0002H58.9994C60.1039 30.0002 60.9994 30.8956 60.9994 32.0002C60.9994 33.1047 60.1039 34.0002 58.9994 34.0002H55.5815C54.623 45.2913 45.6239 54.2905 34.3327 55.249V58.6668C34.3327 59.7714 33.4373 60.6668 32.3327 60.6668C31.2281 60.6668 30.3327 59.7714 30.3327 58.6668V55.249C19.0415 54.2905 10.0424 45.2913 9.08386 34.0002H5.66602C4.56145 34.0002 3.66602 33.1047 3.66602 32.0002C3.66602 30.8956 4.56145 30.0002 5.66602 30.0002H9.08386C10.0424 18.709 19.0415 9.70985 30.3327 8.75134V5.3335C30.3327 4.22893 31.2281 3.3335 32.3327 3.3335ZM32.3327 12.6668C21.6552 12.6668 12.9993 21.3227 12.9993 32.0002C12.9993 42.6777 21.6552 51.3335 32.3327 51.3335C43.0102 51.3335 51.666 42.6777 51.666 32.0002C51.666 21.3227 43.0102 12.6668 32.3327 12.6668ZM32.3327 26.0002C29.019 26.0002 26.3327 28.6865 26.3327 32.0002C26.3327 35.3139 29.019 38.0002 32.3327 38.0002C35.6464 38.0002 38.3327 35.3139 38.3327 32.0002C38.3327 28.6865 35.6464 26.0002 32.3327 26.0002ZM22.3327 32.0002C22.3327 26.4773 26.8098 22.0002 32.3327 22.0002C37.8555 22.0002 42.3327 26.4773 42.3327 32.0002C42.3327 37.523 37.8555 42.0002 32.3327 42.0002C26.8098 42.0002 22.3327 37.523 22.3327 32.0002Z" fill="#F9FAFB"/>
</svg>
