<svg width="48" height="48" viewBox="0 0 48 48" fill="none" xmlns="http://www.w3.org/2000/svg">
<rect width="48" height="48" rx="24" fill="#F3F7FF" fill-opacity="0.2"/>
<path fill-rule="evenodd" clip-rule="evenodd" d="M16.708 22.4526C16.708 18.3701 19.9622 15.0415 23.9997 15.0415C28.0372 15.0415 31.2913 18.3701 31.2913 22.4526C31.2913 24.4235 30.7297 26.5398 29.7367 28.3681C28.745 30.1941 27.296 31.7809 25.4834 32.6281C24.5418 33.0682 23.4575 33.0682 22.5159 32.6281C20.7033 31.7809 19.2544 30.1941 18.2626 28.3681C17.2697 26.5398 16.708 24.4235 16.708 22.4526ZM23.9997 16.2915C20.6734 16.2915 17.958 19.0394 17.958 22.4526C17.958 24.2001 18.4602 26.1127 19.3611 27.7715C20.2632 29.4325 21.538 30.7912 23.0452 31.4957C23.6514 31.779 24.348 31.779 24.9541 31.4957C26.4613 30.7912 27.7361 29.4325 28.6383 27.7715C29.5391 26.1127 30.0413 24.2001 30.0413 22.4526C30.0413 19.0394 27.326 16.2915 23.9997 16.2915ZM23.9997 20.4582C22.9641 20.4582 22.1247 21.2976 22.1247 22.3332C22.1247 23.3687 22.9641 24.2082 23.9997 24.2082C25.0352 24.2082 25.8747 23.3687 25.8747 22.3332C25.8747 21.2976 25.0352 20.4582 23.9997 20.4582ZM20.8747 22.3332C20.8747 20.6073 22.2738 19.2082 23.9997 19.2082C25.7256 19.2082 27.1247 20.6073 27.1247 22.3332C27.1247 24.0591 25.7256 25.4582 23.9997 25.4582C22.2738 25.4582 20.8747 24.0591 20.8747 22.3332Z" fill="white"/>
</svg>
