<svg width="33" height="33" viewBox="0 0 33 33" fill="none" xmlns="http://www.w3.org/2000/svg">
<rect x="0.333008" y="0.633789" width="32" height="32" rx="16" fill="#98A2B3"/>
<path d="M13.67 16.6746C13.67 15.2006 14.8642 14.0053 16.3378 14.0053C17.8114 14.0053 19.0063 15.2006 19.0063 16.6746C19.0063 18.1486 17.8114 19.3438 16.3378 19.3438C14.8642 19.3438 13.67 18.1486 13.67 16.6746ZM12.2274 16.6746C12.2274 18.9454 14.0676 20.7861 16.3378 20.7861C18.608 20.7861 20.4482 18.9454 20.4482 16.6746C20.4482 14.4038 18.608 12.563 16.3378 12.563C14.0676 12.563 12.2274 14.4038 12.2274 16.6746ZM19.6503 12.4C19.6502 12.59 19.7065 12.7758 19.812 12.9339C19.9175 13.092 20.0675 13.2152 20.2429 13.288C20.4184 13.3608 20.6116 13.3799 20.7979 13.3429C20.9843 13.3059 21.1555 13.2144 21.2899 13.0801C21.4242 12.9458 21.5158 12.7746 21.5529 12.5882C21.5901 12.4019 21.5711 12.2086 21.4985 12.033C21.4259 11.8574 21.3028 11.7073 21.1449 11.6017C20.987 11.496 20.8013 11.4396 20.6113 11.4395H20.6109C20.3562 11.4397 20.112 11.5409 19.9319 11.721C19.7518 11.9011 19.6505 12.1453 19.6503 12.4V12.4ZM13.1039 23.1922C12.3234 23.1566 11.8992 23.0266 11.6173 22.9167C11.2436 22.7712 10.977 22.5979 10.6966 22.3178C10.4162 22.0378 10.2427 21.7713 10.0978 21.3974C9.98795 21.1156 9.85795 20.6911 9.82248 19.9105C9.78367 19.0665 9.77592 18.8129 9.77592 16.6747C9.77592 14.5364 9.78431 14.2835 9.82248 13.4388C9.85802 12.6582 9.98898 12.2346 10.0978 11.9519C10.2433 11.578 10.4166 11.3113 10.6966 11.0309C10.9766 10.7504 11.243 10.5768 11.6173 10.4319C11.8991 10.322 12.3234 10.192 13.1039 10.1565C13.9476 10.1177 14.2011 10.1099 16.3378 10.1099C18.4745 10.1099 18.7282 10.1183 19.5727 10.1565C20.3531 10.192 20.7766 10.323 21.0592 10.4319C21.433 10.5768 21.6996 10.7508 21.98 11.0309C22.2603 11.3109 22.4332 11.578 22.5787 11.9519C22.6886 12.2337 22.8186 12.6582 22.8541 13.4388C22.8929 14.2835 22.9007 14.5364 22.9007 16.6747C22.9007 18.8129 22.8929 19.0658 22.8541 19.9105C22.8186 20.6911 22.6879 21.1155 22.5787 21.3974C22.4332 21.7713 22.26 22.038 21.98 22.3178C21.7 22.5976 21.433 22.7712 21.0592 22.9167C20.7775 23.0267 20.3531 23.1567 19.5727 23.1922C18.7289 23.231 18.4755 23.2388 16.3378 23.2388C14.2001 23.2388 13.9474 23.231 13.1039 23.1922V23.1922ZM13.0376 8.71597C12.1854 8.75479 11.6031 8.88995 11.0946 9.08789C10.5679 9.29229 10.1221 9.56652 9.6766 10.0115C9.23108 10.4564 8.95764 10.9031 8.75329 11.4299C8.55541 11.9389 8.42029 12.521 8.38148 13.3734C8.34204 14.2272 8.33301 14.5001 8.33301 16.6746C8.33301 18.8491 8.34204 19.122 8.38148 19.9758C8.42029 20.8282 8.55541 21.4103 8.75329 21.9193C8.95764 22.4458 9.23115 22.893 9.6766 23.3377C10.122 23.7825 10.5679 24.0563 11.0946 24.2613C11.6041 24.4592 12.1854 24.5944 13.0376 24.6332C13.8915 24.672 14.164 24.6817 16.3378 24.6817C18.5117 24.6817 18.7845 24.6727 19.638 24.6332C20.4902 24.5944 21.0722 24.4592 21.581 24.2613C22.1073 24.0563 22.5535 23.7827 22.999 23.3377C23.4445 22.8928 23.7174 22.4458 23.9223 21.9193C24.1202 21.4103 24.256 20.8282 24.2941 19.9758C24.3329 19.1214 24.342 18.8491 24.342 16.6746C24.342 14.5001 24.3329 14.2272 24.2941 13.3734C24.2553 12.521 24.1202 11.9385 23.9223 11.4299C23.7174 10.9034 23.4438 10.4571 22.999 10.0115C22.5542 9.56581 22.1073 9.29229 21.5817 9.08789C21.0722 8.88995 20.4902 8.75415 19.6387 8.71597C18.7852 8.67715 18.5123 8.66748 16.3384 8.66748C14.1646 8.66748 13.8915 8.67651 13.0376 8.71597Z" fill="#101828"/>
</svg>
