<svg width="24" height="24" viewBox="0 0 24 24" fill="none" xmlns="http://www.w3.org/2000/svg">
<path d="M22.425 10.125L21.525 9.41249C21.3 9.22499 21.225 8.96249 21.2626 8.7L21.5625 7.61249C21.75 6.93749 21.6 6.22499 21.1875 5.62499C20.7375 5.02499 20.0625 4.64999 19.3125 4.61249L18.15 4.5375C17.85 4.5375 17.55 4.34999 17.475 4.08749L17.0625 3.07499C16.8 2.43749 16.2375 1.91249 15.5625 1.68749C14.85 1.46249 14.1 1.53749 13.4625 1.91249L12.4875 2.51249C12.225 2.66249 11.8875 2.66249 11.5875 2.51249L10.6125 1.91249C9.97505 1.53749 9.22505 1.42499 8.51255 1.68749C7.83755 1.91249 7.27505 2.39999 7.01255 3.07499L6.52505 4.12499C6.41255 4.3875 6.15005 4.57499 5.85005 4.57499L4.68755 4.64999C3.93755 4.68749 3.22505 5.06249 2.81255 5.66249C2.40005 6.22499 2.25005 6.97499 2.43755 7.64999L2.73755 8.73749C2.81255 8.99999 2.70005 9.2625 2.47505 9.45L1.57505 10.125C0.975049 10.575 0.675049 11.25 0.675049 12C0.675049 12.7125 1.01255 13.3875 1.57505 13.875L2.47505 14.5875C2.70005 14.775 2.81255 15.0375 2.73755 15.3L2.43755 16.3875C2.25005 17.0625 2.40005 17.775 2.81255 18.375C3.26255 18.975 3.93755 19.35 4.68755 19.3875L5.85005 19.4625C6.15005 19.4625 6.45005 19.65 6.52505 19.9125L6.93755 20.925C7.20005 21.5625 7.76255 22.0875 8.43755 22.3125C9.15005 22.5375 9.90005 22.4625 10.5375 22.0875L11.5125 21.4875C11.775 21.3375 12.1125 21.3375 12.4125 21.4875L13.3875 22.0875C13.8 22.3125 14.25 22.4625 14.7 22.4625C14.9625 22.4625 15.225 22.425 15.4875 22.35C16.1625 22.125 16.725 21.6375 16.9875 20.9625L17.4 19.95C17.5126 19.6875 17.775 19.5 18.0751 19.5L19.2375 19.425C19.9875 19.3875 20.7 19.0125 21.1125 18.4125C21.525 17.85 21.675 17.1 21.4875 16.425L21.1875 15.3375C21.1125 15.075 21.225 14.8125 21.4501 14.625L22.35 13.9125C22.95 13.4625 23.25 12.7875 23.25 12.0375C23.3625 11.2875 23.025 10.6125 22.425 10.125ZM21.375 12.525L20.475 13.2375C19.725 13.8375 19.3876 14.8125 19.65 15.7125L19.9501 16.8C20.025 17.0625 19.9125 17.25 19.8375 17.3625C19.6875 17.55 19.4625 17.6625 19.2375 17.7L18.0751 17.775C17.1376 17.8125 16.275 18.4125 15.9375 19.275L15.4875 20.25C15.375 20.5125 15.15 20.625 15 20.6625C14.775 20.7375 14.5125 20.7 14.2875 20.5875L13.3125 19.9875C12.9 19.7625 12.45 19.6125 12 19.6125C11.55 19.6125 11.1 19.725 10.6875 19.9875L9.71255 20.5875C9.48755 20.7 9.22505 20.7375 9.00005 20.6625C8.88755 20.625 8.62505 20.5125 8.51255 20.25L8.10005 19.2375C7.76255 18.375 6.90005 17.775 5.96255 17.7375L4.80005 17.6625C4.53755 17.6625 4.31255 17.5125 4.20005 17.325C4.12505 17.2125 4.01255 17.025 4.08755 16.7625L4.38755 15.675C4.65005 14.775 4.31255 13.8 3.56255 13.2L2.62505 12.525C2.43755 12.375 2.36255 12.1875 2.36255 12C2.36255 11.775 2.47505 11.5875 2.62505 11.475L3.52505 10.7625C4.27505 10.1625 4.61255 9.18749 4.35005 8.28749L4.05005 7.2C3.97505 6.9375 4.08755 6.75 4.16255 6.6375C4.31255 6.45 4.53755 6.33749 4.76255 6.29999L5.92505 6.22499C6.86255 6.18749 7.72505 5.58749 8.06255 4.72499L8.47505 3.71249C8.62505 3.48749 8.85005 3.37499 9.00005 3.33749C9.22505 3.26249 9.48755 3.3 9.71255 3.4125L10.6875 4.01249C11.475 4.49999 12.525 4.49999 13.3125 4.01249L14.2875 3.4125C14.5125 3.3 14.775 3.26249 15 3.33749C15.1125 3.37499 15.375 3.48749 15.4875 3.74999L15.9 4.76249C16.2375 5.62499 17.1 6.225 18.0375 6.2625L19.2001 6.33749C19.4625 6.33749 19.6875 6.48749 19.8 6.67499C19.875 6.78749 19.9875 6.97499 19.9125 7.23749L19.6125 8.325C19.35 9.225 19.6875 10.2 20.4375 10.8L21.3375 11.5125C21.525 11.6625 21.6 11.85 21.6 12.0375C21.675 12.225 21.5625 12.4125 21.375 12.525Z" fill="#373A51"/>
<path d="M15.45 8.55001C15.1125 8.21251 14.5875 8.21251 14.25 8.55001L8.55005 14.25C8.21255 14.5875 8.21255 15.1125 8.55005 15.45C8.70005 15.6 8.92505 15.7125 9.15005 15.7125C9.37505 15.7125 9.60005 15.6375 9.75005 15.45L15.45 9.75001C15.7875 9.41251 15.7875 8.85001 15.45 8.55001ZM10.95 10.9125C11.85 10.0125 11.85 8.58751 10.95 7.68751C10.5375 7.27501 9.93755 7.01251 9.33755 7.01251C8.73755 7.01251 8.17505 7.23751 7.72505 7.68751C6.82505 8.58751 6.82505 10.0125 7.72505 10.9125C8.13755 11.325 8.73755 11.5875 9.33755 11.5875C9.93755 11.5875 10.5 11.3625 10.95 10.9125ZM8.92505 8.92501C9.03755 8.81251 9.18755 8.73751 9.33755 8.73751C9.48755 8.73751 9.63755 8.81251 9.75005 8.92501C9.97505 9.15001 9.97505 9.52501 9.75005 9.75001C9.52505 9.97501 9.15005 9.97501 8.92505 9.75001C8.70005 9.52501 8.70005 9.15001 8.92505 8.92501ZM12.9375 12.9375C12.525 13.35 12.2625 13.95 12.2625 14.55C12.2625 15.15 12.4875 15.7125 12.9375 16.1625C13.3875 16.6125 13.95 16.8375 14.55 16.8375C15.15 16.8375 15.7125 16.6125 16.1625 16.1625C16.575 15.75 16.8375 15.15 16.8375 14.55C16.8375 13.95 16.6125 13.3875 16.1625 12.9375C15.2625 12.0375 13.8375 12.0375 12.9375 12.9375ZM14.9625 14.9625C14.7375 15.1875 14.3625 15.1875 14.1375 14.9625C14.025 14.85 13.95 14.7 13.95 14.55C13.95 14.4 14.025 14.25 14.1375 14.1375C14.25 14.025 14.4 13.95 14.55 13.95C14.7 13.95 14.85 14.025 14.9625 14.1375C15.075 14.25 15.15 14.4 15.15 14.55C15.15 14.7 15.075 14.85 14.9625 14.9625Z" fill="#373A51"/>
</svg>
