<svg width="33" height="32" viewBox="0 0 33 32" fill="none" xmlns="http://www.w3.org/2000/svg">
<path opacity="0.2" d="M4.6375 9.32501C4.54693 9.48058 4.49946 9.65749 4.5 9.83751V22.1625C4.50096 22.3405 4.54884 22.5152 4.63882 22.6688C4.7288 22.8224 4.85769 22.9496 5.0125 23.0375L16.0125 29.225C16.1608 29.3097 16.3292 29.3529 16.5 29.35L16.6125 16L4.6375 9.32501Z" fill="#0E74BC"/>
<path d="M28.5 22.1625V9.83747C28.499 9.65944 28.4512 9.48481 28.3612 9.33119C28.2712 9.17757 28.1423 9.05039 27.9875 8.96247L16.9875 2.77497C16.8393 2.6894 16.6711 2.64435 16.5 2.64435C16.3289 2.64435 16.1607 2.6894 16.0125 2.77497L5.0125 8.96247C4.85769 9.05039 4.72879 9.17757 4.63882 9.33119C4.54884 9.48481 4.50096 9.65944 4.5 9.83747V22.1625C4.50096 22.3405 4.54884 22.5151 4.63882 22.6688C4.72879 22.8224 4.85769 22.9496 5.0125 23.0375L16.0125 29.225C16.1607 29.3106 16.3289 29.3556 16.5 29.3556C16.6711 29.3556 16.8393 29.3106 16.9875 29.225L27.9875 23.0375C28.1423 22.9496 28.2712 22.8224 28.3612 22.6688C28.4512 22.5151 28.499 22.3405 28.5 22.1625V22.1625Z" stroke="#0E74BC" stroke-width="2" stroke-linecap="round" stroke-linejoin="round"/>
<path d="M22.625 19.0625V12.5625L10.5 5.875" stroke="#0E74BC" stroke-width="2" stroke-linecap="round" stroke-linejoin="round"/>
<path d="M28.3627 9.32501L16.6127 16L4.6377 9.32501" stroke="#0E74BC" stroke-width="2" stroke-linecap="round" stroke-linejoin="round"/>
<path d="M16.6125 16L16.5 29.35" stroke="#0E74BC" stroke-width="2" stroke-linecap="round" stroke-linejoin="round"/>
</svg>
