<svg width="47" height="32" viewBox="0 0 47 32" fill="none" xmlns="http://www.w3.org/2000/svg">
<rect x="1" y="0.5" width="45" height="31" rx="5.5" fill="white"/>
<rect x="1" y="0.5" width="45" height="31" rx="5.5" stroke="#E5E7EB"/>
<path fill-rule="evenodd" clip-rule="evenodd" d="M14.8341 21.1444H12.0877L10.0283 13.0565C9.93058 12.6845 9.72304 12.3556 9.41774 12.2006C8.65584 11.811 7.81628 11.501 6.90039 11.3446V11.0332H11.3245C11.9351 11.0332 12.393 11.501 12.4694 12.0442L13.5379 17.8782L16.2829 11.0332H18.9529L14.8341 21.1444ZM20.4794 21.1444H17.8857L20.0214 11.0332H22.6151L20.4794 21.1444ZM25.9707 13.8343C26.047 13.2898 26.5049 12.9784 27.0392 12.9784C27.8788 12.9002 28.7933 13.0566 29.5565 13.4448L30.0145 11.2678C29.2512 10.9564 28.4117 10.8 27.6498 10.8C25.1324 10.8 23.3007 12.2006 23.3007 14.1444C23.3007 15.6231 24.5982 16.3995 25.5141 16.8673C26.5049 17.3337 26.8865 17.6451 26.8102 18.1114C26.8102 18.811 26.047 19.1224 25.2851 19.1224C24.3692 19.1224 23.4533 18.8892 22.6151 18.4997L22.1571 20.678C23.073 21.0662 24.0639 21.2226 24.9798 21.2226C27.8024 21.2994 29.5565 19.9002 29.5565 17.8001C29.5565 15.1553 25.9707 15.0003 25.9707 13.8343ZM38.6337 21.1444L36.5743 11.0332H34.3623C33.9043 11.0332 33.4464 11.3446 33.2937 11.811L29.4802 21.1444H32.1502L32.6831 19.667H35.9637L36.269 21.1444H38.6337ZM34.7439 13.7562L35.5058 17.5669H33.3701L34.7439 13.7562Z" fill="#172B85"/>
</svg>
