<svg width="65" height="64" viewBox="0 0 65 64" fill="none" xmlns="http://www.w3.org/2000/svg">
<path fill-rule="evenodd" clip-rule="evenodd" d="M13.2475 8.24572C16.5173 4.80322 21.9259 5.44819 24.6288 9.27107L27.9915 14.027C30.1534 17.0848 29.9708 21.3359 27.3906 24.0524L26.7377 24.7398C26.7358 24.7446 26.7339 24.7497 26.7319 24.7553C26.6974 24.8522 26.6102 25.161 26.6961 25.747C26.8741 26.9618 27.8118 29.4303 31.6189 33.4384C35.4379 37.4592 37.7544 38.4068 38.8278 38.5811C39.2909 38.6563 39.5332 38.591 39.6104 38.5638L40.7001 37.4166C43.0301 34.9634 46.6631 34.4802 49.5923 36.1662L54.687 39.0986C59.0415 41.605 60.055 47.7362 56.575 51.3999L52.7869 55.3881C51.6046 56.6328 49.9924 57.6953 48.0003 57.892C43.1366 58.372 31.8696 57.7467 20.0579 45.3113C9.03617 33.7074 6.94236 23.6143 6.67767 18.6831L8.45395 18.5877L6.67767 18.6831C6.5469 16.2466 7.63298 14.1568 9.06191 12.6524L13.2475 8.24572ZM21.3627 11.5803C19.9965 9.64792 17.542 9.53262 16.1477 11.0005L11.9621 15.4071C11.0784 16.3375 10.6148 17.4039 10.6719 18.4687C10.888 22.4949 12.6218 31.6743 22.9582 42.5565C33.796 53.9667 43.7807 54.289 47.6074 53.9113C48.364 53.8366 49.1425 53.4168 49.8867 52.6334L53.6748 48.6452C55.3089 46.9247 54.8805 43.8253 52.6916 42.5654L47.5969 39.6329C46.2297 38.846 44.6282 39.0892 43.6003 40.1713L42.3858 41.45L40.98 40.1147C42.3858 41.45 42.3839 41.4519 42.3821 41.4539L42.3783 41.4578L42.3704 41.466L42.3535 41.4832L42.3152 41.5209C42.2877 41.5475 42.2561 41.5768 42.2202 41.6082C42.1486 41.6711 42.0599 41.7427 41.9533 41.8183C41.7397 41.9698 41.4551 42.1365 41.0953 42.2784C40.3593 42.5687 39.3874 42.7244 38.1866 42.5294C35.8466 42.1494 32.7796 40.4686 28.7186 36.1932C24.6457 31.9051 23.0869 28.7059 22.7383 26.3269C22.5609 25.116 22.7029 24.1465 22.9634 23.4143C23.0916 23.0542 23.2428 22.7671 23.3824 22.5491C23.4519 22.4404 23.5182 22.3493 23.5769 22.2753C23.6062 22.2382 23.6336 22.2054 23.6585 22.1767L23.694 22.1368L23.7103 22.1191L23.7181 22.1108L23.7218 22.1068C23.7237 22.1048 23.7255 22.1029 25.1433 23.4495L23.7255 22.1029L24.4904 21.2976C25.6785 20.0468 25.8511 17.9284 24.7254 16.3363L21.3627 11.5803Z" fill="#F9FAFB"/>
<path d="M36.0253 5.01353C36.2018 3.92316 37.2326 3.1835 38.323 3.36002C38.3905 3.37294 38.6076 3.41353 38.7214 3.43887C38.9489 3.48955 39.2664 3.56757 39.6621 3.68284C40.4535 3.91335 41.5591 4.2931 42.8861 4.90146C45.5428 6.11947 49.0783 8.25015 52.7471 11.9189C56.4159 15.5877 58.5466 19.1232 59.7646 21.78C60.373 23.107 60.7527 24.2126 60.9833 25.004C61.0985 25.3997 61.1765 25.7171 61.2272 25.9447C61.2526 26.0585 61.2711 26.1498 61.284 26.2173L61.2993 26.3005C61.4759 27.3909 60.7429 28.4643 59.6526 28.6408C58.5653 28.8168 57.541 28.0807 57.3602 26.9955C57.3546 26.9663 57.3393 26.888 57.3229 26.8142C57.29 26.6665 57.2331 26.4323 57.1428 26.1226C56.9624 25.503 56.649 24.5821 56.1285 23.447C55.089 21.1795 53.2197 18.0483 49.9187 14.7474C46.6177 11.4464 43.4866 9.57709 41.2191 8.53754C40.084 8.01713 39.1631 7.70371 38.5435 7.52325C38.2338 7.43303 37.8444 7.34366 37.6968 7.31077C36.6115 7.12991 35.8493 6.10079 36.0253 5.01353Z" fill="#F9FAFB"/>
<path fill-rule="evenodd" clip-rule="evenodd" d="M36.6302 14.2123C36.9336 13.1502 38.0406 12.5352 39.1027 12.8387L38.5532 14.7617C39.1027 12.8387 39.1036 12.839 39.1046 12.8392L39.1065 12.8398L39.1106 12.841L39.1195 12.8436L39.1402 12.8497L39.1929 12.8662C39.2332 12.879 39.2834 12.8958 39.3432 12.917C39.463 12.9595 39.6213 13.02 39.8154 13.1032C40.2039 13.2697 40.7348 13.5268 41.3868 13.9127C42.692 14.6852 44.4739 15.9683 46.5671 18.0616C48.6604 20.1548 49.9435 21.9367 50.716 23.2419C51.1019 23.8939 51.359 24.4248 51.5255 24.8133C51.6087 25.0074 51.6692 25.1657 51.7117 25.2855C51.7329 25.3453 51.7497 25.3955 51.7625 25.4358L51.779 25.4885L51.7851 25.5092L51.7877 25.5181L51.7889 25.5222L51.7895 25.5241C51.7897 25.5251 51.79 25.526 49.867 26.0755L51.79 25.526C52.0935 26.5881 51.4785 27.6951 50.4164 27.9985C49.3633 28.2994 48.2662 27.6973 47.9518 26.6519L47.942 26.6231C47.9277 26.583 47.8983 26.5041 47.8489 26.3889C47.7503 26.1587 47.5713 25.7821 47.2737 25.2792C46.6791 24.2745 45.6052 22.7565 43.7387 20.89C41.8722 19.0235 40.3542 17.9496 39.3495 17.355C38.8466 17.0574 38.47 16.8784 38.2398 16.7798C38.1246 16.7304 38.0457 16.701 38.0056 16.6867L37.9768 16.6769C36.9314 16.3625 36.3293 15.2654 36.6302 14.2123Z" fill="#F9FAFB"/>
</svg>
