<svg width="48" height="48" viewBox="0 0 48 48" fill="none" xmlns="http://www.w3.org/2000/svg">
<rect width="48" height="48" rx="24" fill="#F3F7FF" fill-opacity="0.2"/>
<path d="M31.3087 30.2748C31.3087 30.5748 31.242 30.8832 31.1003 31.1832C30.9587 31.4832 30.7753 31.7665 30.5337 32.0332C30.1253 32.4832 29.6753 32.8082 29.167 33.0165C28.667 33.2248 28.1253 33.3332 27.542 33.3332C26.692 33.3332 25.7837 33.1332 24.8253 32.7248C23.867 32.3165 22.9087 31.7665 21.9587 31.0748C21.0003 30.3748 20.092 29.5998 19.2253 28.7415C18.367 27.8748 17.592 26.9665 16.9003 26.0165C16.217 25.0665 15.667 24.1165 15.267 23.1748C14.867 22.2248 14.667 21.3165 14.667 20.4498C14.667 19.8832 14.767 19.3415 14.967 18.8415C15.167 18.3332 15.4837 17.8665 15.9253 17.4498C16.4587 16.9248 17.042 16.6665 17.6587 16.6665C17.892 16.6665 18.1253 16.7165 18.3337 16.8165C18.5503 16.9165 18.742 17.0665 18.892 17.2832L20.8253 20.0082C20.9753 20.2165 21.0837 20.4082 21.1587 20.5915C21.2337 20.7665 21.2753 20.9415 21.2753 21.0998C21.2753 21.2998 21.217 21.4998 21.1003 21.6915C20.992 21.8832 20.8337 22.0832 20.6337 22.2832L20.0003 22.9415C19.9087 23.0332 19.867 23.1415 19.867 23.2748C19.867 23.3415 19.8753 23.3998 19.892 23.4665C19.917 23.5332 19.942 23.5832 19.9587 23.6332C20.1087 23.9082 20.367 24.2665 20.7337 24.6998C21.1087 25.1332 21.5087 25.5748 21.942 26.0165C22.392 26.4582 22.8253 26.8665 23.267 27.2415C23.7003 27.6082 24.0587 27.8582 24.342 28.0082C24.3837 28.0248 24.4337 28.0498 24.492 28.0748C24.5587 28.0998 24.6253 28.1082 24.7003 28.1082C24.842 28.1082 24.9503 28.0582 25.042 27.9665L25.6753 27.3415C25.8837 27.1332 26.0837 26.9748 26.2753 26.8748C26.467 26.7582 26.6587 26.6998 26.867 26.6998C27.0253 26.6998 27.192 26.7332 27.3753 26.8082C27.5587 26.8832 27.7503 26.9915 27.9587 27.1332L30.717 29.0915C30.9337 29.2415 31.0837 29.4165 31.1753 29.6248C31.2587 29.8332 31.3087 30.0415 31.3087 30.2748Z" stroke="#F9FAFB" stroke-width="1.2" stroke-miterlimit="10"/>
<path d="M28.4167 22.4997C28.4167 21.9997 28.025 21.233 27.4417 20.608C26.9083 20.033 26.2 19.583 25.5 19.583" stroke="#F9FAFB" stroke-width="1.2" stroke-linecap="round" stroke-linejoin="round"/>
<path d="M31.3333 22.4998C31.3333 19.2748 28.725 16.6665 25.5 16.6665" stroke="#F9FAFB" stroke-width="1.2" stroke-linecap="round" stroke-linejoin="round"/>
</svg>
