<svg width="24" height="24" viewBox="0 0 24 24" fill="none" xmlns="http://www.w3.org/2000/svg">
<path d="M14.0496 17.1002L15.9998 21.0002L17.9798 18.9698L21 19L18.1901 13.42V13.4104M9.9504 17.1002L8.00016 21.0002L6.02016 18.9698L3 19L5.80992 13.42V13.4104" stroke="#0E74BC" stroke-width="1.5" stroke-linecap="round" stroke-linejoin="round"/>
<path d="M19.2791 9.99991C19.2791 10.7602 18.609 11.4001 18.3887 12.0802C18.1688 12.7599 18.3191 13.6901 17.889 14.2801C17.4589 14.87 16.5387 15.0001 15.9987 15.4402C15.4587 15.8804 14.9989 16.7002 14.2991 16.9301C13.5987 17.1601 12.8087 16.7199 12.0488 16.7199C11.289 16.7199 10.4792 17.15 9.79907 16.9301C9.11891 16.7098 8.68883 15.8597 8.09891 15.4402C7.50851 15.0202 6.58883 14.87 6.15875 14.2801C5.72867 13.6897 5.88899 12.7801 5.65907 12.0802C5.42867 11.3799 4.71875 10.7602 4.71875 9.99991C4.71875 9.23959 5.38883 8.60023 5.60867 7.92007C5.82851 7.23991 5.67875 6.31015 6.10883 5.72023C6.53891 5.13031 7.45907 5.00023 8.04899 4.56007C8.63891 4.11991 8.99891 3.30007 9.74867 3.07015C10.4989 2.83975 11.2391 3.27991 11.9989 3.27991C12.7587 3.27991 13.5685 2.84983 14.2491 3.07015C14.9288 3.28999 15.3589 4.14007 15.9987 4.56007C16.6386 4.98007 17.5088 5.12983 17.9389 5.72023C18.369 6.31063 18.2091 7.22023 18.4391 7.92007C18.669 8.61991 19.2791 9.24007 19.2791 9.99991ZM11.9989 6.99991C11.2032 6.99991 10.4401 7.31601 9.87742 7.87866C9.31477 8.44131 8.99867 9.20444 8.99867 10.0001C8.99867 10.7959 9.31477 11.559 9.87742 12.1216C10.4401 12.6843 11.2032 13.0004 11.9989 13.0004C12.7946 13.0004 13.5576 12.6843 14.1202 12.1217C14.6828 11.5591 14.9989 10.796 14.9989 10.0004C14.9989 9.20474 14.6828 8.44168 14.1202 7.87907C13.5576 7.31646 12.7946 6.99991 11.9989 6.99991Z" stroke="#0E74BC" stroke-width="1.5" stroke-linecap="round" stroke-linejoin="round"/>
</svg>
