<svg width="24" height="24" viewBox="0 0 24 24" fill="none" xmlns="http://www.w3.org/2000/svg">
<path d="M14.0496 17.1L15.9998 21L17.9798 18.9696L21 18.9998L18.1901 13.4198V13.4102M9.9504 17.1L8.00016 21L6.02016 18.9696L3 18.9998L5.80992 13.4198V13.4102" stroke="#373A51" stroke-width="1.5" stroke-linecap="round" stroke-linejoin="round"/>
<path d="M19.28 9.99985C19.28 10.7602 18.61 11.4 18.3896 12.0802C18.1698 12.7598 18.32 13.6901 17.89 14.28C17.4599 14.8699 16.5397 15 15.9997 15.4402C15.4597 15.8803 14.9999 16.7002 14.3 16.9301C13.5997 17.16 12.8096 16.7198 12.0498 16.7198C11.29 16.7198 10.4802 17.1499 9.80005 16.9301C9.11989 16.7098 8.68981 15.8597 8.09989 15.4402C7.50949 15.0202 6.58981 14.8699 6.15973 14.28C5.72965 13.6896 5.88997 12.78 5.66005 12.0802C5.42965 11.3798 4.71973 10.7602 4.71973 9.99985C4.71973 9.23953 5.38981 8.60017 5.60965 7.92001C5.82949 7.23985 5.67973 6.31009 6.10981 5.72017C6.53989 5.13025 7.46005 5.00017 8.04997 4.56001C8.63989 4.11985 8.99989 3.30001 9.74965 3.07009C10.4999 2.83969 11.24 3.27985 11.9999 3.27985C12.7597 3.27985 13.5695 2.84977 14.2501 3.07009C14.9298 3.28993 15.3599 4.14001 15.9997 4.56001C16.6396 4.98001 17.5098 5.12977 17.9399 5.72017C18.37 6.31057 18.2101 7.22017 18.44 7.92001C18.67 8.61985 19.28 9.24001 19.28 9.99985ZM11.9999 6.99985C11.2042 6.99985 10.4411 7.31594 9.8784 7.8786C9.31574 8.44125 8.99965 9.20438 8.99965 10.0001C8.99965 10.7958 9.31574 11.5589 9.8784 12.1216C10.4411 12.6842 11.2042 13.0003 11.9999 13.0003C12.7955 13.0003 13.5586 12.6843 14.1212 12.1216C14.6838 11.559 14.9999 10.796 14.9999 10.0003C14.9999 9.20468 14.6838 8.44162 14.1212 7.87901C13.5586 7.3164 12.7955 6.99985 11.9999 6.99985Z" stroke="#373A51" stroke-width="1.5" stroke-linecap="round" stroke-linejoin="round"/>
</svg>
