<?xml version="1.0" encoding="UTF-8"?>
<svg version="1.1" xmlns="http://www.w3.org/2000/svg" width="48" height="48">
<path d="M0 0 C2.875 2.1875 2.875 2.1875 5 5 C5.3125 7.8125 5.3125 7.8125 5 10 C5.928125 9.938125 6.85625 9.87625 7.8125 9.8125 C11 10 11 10 12.68359375 11.2265625 C14.36261283 13.48850512 14.34188631 14.77375051 14.25 17.5625 C14.23453125 18.34753906 14.2190625 19.13257812 14.203125 19.94140625 C14 22 14 22 13 24 C12.01 24 11.02 24 10 24 C10 20.7 10 17.4 10 14 C8.35 14 6.7 14 5 14 C5 15.65 5 17.3 5 19 C3.68 19 2.36 19 1 19 C1 17.35 1 15.7 1 14 C-1.64 14 -4.28 14 -7 14 C-7 15.65 -7 17.3 -7 19 C-8.32 19 -9.64 19 -11 19 C-11 17.35 -11 15.7 -11 14 C-12.65 14 -14.3 14 -16 14 C-15.52753292 17.3134921 -15.04590875 20.62558794 -14.5625 23.9375 C-14.42779297 24.88302734 -14.29308594 25.82855469 -14.15429688 26.80273438 C-14.02216797 27.70185547 -13.89003906 28.60097656 -13.75390625 29.52734375 C-13.63345947 30.35999756 -13.5130127 31.19265137 -13.38891602 32.05053711 C-13.18816006 33.99687359 -13.18816006 33.99687359 -12 35 C-10.15108054 35.23363881 -8.29511969 35.41303635 -6.4375 35.5625 C-5.42558594 35.64628906 -4.41367187 35.73007812 -3.37109375 35.81640625 C-2.19740234 35.90728516 -2.19740234 35.90728516 -1 36 C-1 37.32 -1 38.64 -1 40 C-2.91595968 40.08133791 -4.83291932 40.13934367 -6.75 40.1875 C-8.35101562 40.23970703 -8.35101562 40.23970703 -9.984375 40.29296875 C-13.45519196 39.95577798 -14.68778548 39.60124133 -17 37 C-19.4317735 29.43246605 -20.79234846 20.92348462 -20 13 C-18.67578125 11.27734375 -18.67578125 11.27734375 -17 10 C-13.8125 9.8125 -13.8125 9.8125 -11 10 C-10.9175 8.906875 -10.835 7.81375 -10.75 6.6875 C-10 3 -10 3 -8.3125 1.0625 C-5.2135552 -0.3613395 -3.37817188 -0.55153827 0 0 Z M-5 4 C-5.66 4.66 -6.32 5.32 -7 6 C-7 7.32 -7 8.64 -7 10 C-4.36 10 -1.72 10 1 10 C0.67 8.35 0.34 6.7 0 5 C-2.39719432 4.32041397 -2.39719432 4.32041397 -5 4 Z " fill="#0D73BB" transform="translate(27,4)"/>
<path d="M0 0 C0.99 0.33 1.98 0.66 3 1 C1.46356148 4.68069887 -0.78150945 6.98775204 -3.625 9.75 C-4.85089844 10.94882812 -4.85089844 10.94882812 -6.1015625 12.171875 C-6.72804688 12.77515625 -7.35453125 13.3784375 -8 14 C-8.99 13.67 -9.98 13.34 -11 13 C-9.46356148 9.31930113 -7.21849055 7.01224796 -4.375 4.25 C-3.55773438 3.45078125 -2.74046875 2.6515625 -1.8984375 1.828125 C-0.95871094 0.92320313 -0.95871094 0.92320313 0 0 Z " fill="#0D73BB" transform="translate(41,30)"/>
<path d="M0 0 C0.99 0.33 1.98 0.66 3 1 C2.67 1.99 2.34 2.98 2 4 C1.01 3.67 0.02 3.34 -1 3 C-0.67 2.01 -0.34 1.02 0 0 Z " fill="#0D73BB" transform="translate(41,40)"/>
<path d="M0 0 C0.99 0.33 1.98 0.66 3 1 C2.67 1.99 2.34 2.98 2 4 C1.01 3.67 0.02 3.34 -1 3 C-0.67 2.01 -0.34 1.02 0 0 Z " fill="#0D73BB" transform="translate(31,30)"/>
</svg>
