<svg width="25" height="24" viewBox="0 0 25 24" fill="none" xmlns="http://www.w3.org/2000/svg">
<path d="M16.8663 16.179L17.3782 15.6671C18.294 14.7513 19.8098 14.7822 20.7638 15.7362C21.7178 16.6902 21.7487 18.206 20.8329 19.1218L20.321 19.6338C20.2778 19.5242 20.2227 19.3974 20.1527 19.2566C19.9264 18.8018 19.5463 18.2044 18.921 17.5791C18.2957 16.9537 17.6982 16.5736 17.2434 16.3473C17.1026 16.2773 16.9758 16.2221 16.8663 16.179Z" fill="#53ADED"/>
<path d="M15.6401 17.4052L15.1671 17.8782C14.2513 18.794 14.2822 20.3098 15.2362 21.2638C16.1902 22.2178 17.706 22.2487 18.6218 21.3329L19.0947 20.86L18.995 20.3902L18.9921 20.3789C18.9879 20.3637 18.9797 20.335 18.9661 20.2947C18.9388 20.2139 18.8901 20.0864 18.8097 19.9247C18.6492 19.602 18.361 19.1404 17.8603 18.6397C17.3597 18.139 16.898 17.8508 16.5753 17.6903C16.4135 17.6098 16.2859 17.5611 16.2052 17.5338C16.1648 17.5202 16.1362 17.5119 16.1209 17.5078L16.1096 17.5048L15.6401 17.4052Z" fill="#53ADED"/>
<path d="M6.57612 2.61732C6.5 2.80109 6.5 3.03406 6.5 3.5C6.5 3.96594 6.5 4.19891 6.57612 4.38268C6.67761 4.62771 6.87229 4.82239 7.11732 4.92388C7.30109 5 7.53406 5 8 5H9.5H15.5H17C17.4659 5 17.6989 5 17.8827 4.92388C18.1277 4.82239 18.3224 4.62771 18.4239 4.38268C18.5 4.19891 18.5 3.96594 18.5 3.5C18.5 3.03406 18.5 2.80109 18.4239 2.61732C18.3224 2.37229 18.1277 2.17761 17.8827 2.07612C17.6989 2 17.4659 2 17 2H8C7.53406 2 7.30109 2 7.11732 2.07612C6.87229 2.17761 6.67761 2.37229 6.57612 2.61732Z" fill="#53ADED"/>
<path d="M8.24997 6L6.00122 7.79896C5.50902 8.19272 5.12351 8.69147 4.86644 9.24994H20.1401C19.8862 8.69266 19.5046 8.19417 19.0168 7.79925L16.7942 6H8.24997Z" fill="#0E74BC"/>
<path fill-rule="evenodd" clip-rule="evenodd" d="M20.5 10.9082C20.5 10.8553 20.499 10.8026 20.4969 10.7499H4.50371C4.50124 10.8073 4.5 10.8648 4.5 10.9224V17.2499H13.734C13.8452 17.0993 13.9694 16.9547 14.1067 16.8174L16.3177 14.6064C17.4608 13.4634 19.1118 13.2295 20.5 13.7954V10.9082ZM13.25 13.2499V11.9999C13.25 11.5857 12.9142 11.2499 12.5 11.2499C12.0858 11.2499 11.75 11.5857 11.75 11.9999V13.2499H10.5C10.0858 13.2499 9.75 13.5857 9.75 13.9999C9.75 14.4141 10.0858 14.7499 10.5 14.7499H11.75V15.9999C11.75 16.4141 12.0858 16.7499 12.5 16.7499C12.9142 16.7499 13.25 16.4141 13.25 15.9999V14.7499H14.5C14.9142 14.7499 15.25 14.4141 15.25 13.9999C15.25 13.5857 14.9142 13.2499 14.5 13.2499H13.25Z" fill="#0E74BC"/>
<path d="M13.0729 18.7499C12.8513 19.8711 13.1386 21.0722 13.8846 21.9999H9.45693C8.88582 21.9999 8.60026 21.9999 8.32957 21.9628C7.52661 21.8526 6.77608 21.501 6.17738 20.9548C5.97554 20.7706 5.79272 20.5512 5.42711 20.1125C5.0902 19.7082 4.83901 19.2447 4.68368 18.7499H13.0729Z" fill="#0E74BC"/>
</svg>
