<svg width="20" height="20" viewBox="0 0 20 20" fill="none" xmlns="http://www.w3.org/2000/svg">
<path d="M10.6937 18.1678C13.2986 17.6457 16.6667 15.7718 16.6667 10.9261C16.6667 6.51641 13.4389 3.58002 11.1179 2.23079C10.6029 1.93139 10 2.32513 10 2.92085V4.44458C10 5.64613 9.49481 7.83934 8.0911 8.75158C7.37443 9.21733 6.60043 8.52024 6.51333 7.66998L6.44181 6.97178C6.35866 6.16011 5.53201 5.66738 4.8833 6.16225C3.71789 7.05128 2.5 8.60808 2.5 10.9261C2.5 16.852 6.90741 18.3335 9.11111 18.3335C9.23929 18.3335 9.37399 18.3296 9.51422 18.3216C8.42609 18.2286 6.66667 17.5535 6.66667 15.3703C6.66667 13.6625 7.91256 12.5072 8.85918 11.9456C9.11378 11.7945 9.41176 11.9906 9.41176 12.2867V12.7777C9.41176 13.1535 9.55709 13.7408 9.90303 14.1429C10.2945 14.5979 10.8691 14.1213 10.9154 13.5228C10.93 13.3341 11.1199 13.2138 11.2834 13.3093C11.8178 13.6216 12.5 14.2889 12.5 15.3703C12.5 17.0769 11.5592 17.862 10.6937 18.1678Z" fill="#0E74BC"/>
</svg>
