<svg width="21" height="20" viewBox="0 0 21 20" fill="none" xmlns="http://www.w3.org/2000/svg">
<path d="M14.1386 13.4825L14.5651 13.0559C15.3283 12.2928 16.5915 12.3185 17.3865 13.1135C18.1815 13.9085 18.2072 15.1717 17.4441 15.9349L17.0175 16.3615C16.9815 16.2702 16.9356 16.1645 16.8772 16.0472C16.6887 15.6682 16.3719 15.1703 15.8508 14.6492C15.3297 14.1281 14.8319 13.8113 14.4528 13.6227C14.3355 13.5644 14.2299 13.5184 14.1386 13.4825Z" fill="#53ADED"/>
<path d="M13.1168 14.5043L12.7226 14.8985C11.9594 15.6617 11.9852 16.9248 12.7802 17.7198C13.5752 18.5148 14.8384 18.5406 15.6015 17.7774L15.9956 17.3833L15.9125 16.9918L15.9101 16.9825C15.9066 16.9697 15.8998 16.9459 15.8884 16.9122C15.8657 16.8449 15.8251 16.7387 15.7581 16.6039C15.6243 16.335 15.3842 15.9503 14.9669 15.5331C14.5497 15.1159 14.165 14.8757 13.896 14.7419C13.7612 14.6748 13.655 14.6342 13.5877 14.6115C13.554 14.6001 13.5301 14.5933 13.5174 14.5898L13.508 14.5874L13.1168 14.5043Z" fill="#53ADED"/>
<path d="M5.56343 2.18118C5.5 2.33432 5.5 2.52846 5.5 2.91675C5.5 3.30503 5.5 3.49917 5.56343 3.65232C5.64801 3.85651 5.81024 4.01874 6.01443 4.10331C6.16757 4.16675 6.36172 4.16675 6.75 4.16675H8H13H14.25C14.6383 4.16675 14.8324 4.16675 14.9856 4.10331C15.1898 4.01874 15.352 3.85651 15.4366 3.65232C15.5 3.49917 15.5 3.30503 15.5 2.91675C15.5 2.52846 15.5 2.33432 15.4366 2.18118C15.352 1.97699 15.1898 1.81476 14.9856 1.73018C14.8324 1.66675 14.6383 1.66675 14.25 1.66675H6.75C6.36172 1.66675 6.16757 1.66675 6.01443 1.73018C5.81024 1.81476 5.64801 1.97699 5.56343 2.18118Z" fill="#53ADED"/>
<path d="M6.9583 5L5.08435 6.49913C4.67418 6.82727 4.35292 7.24289 4.1387 7.70828H16.8667C16.6551 7.24388 16.3372 6.82847 15.9307 6.49937L14.0785 5H6.9583Z" fill="#0E74BC"/>
<path fill-rule="evenodd" clip-rule="evenodd" d="M17.1667 9.09019C17.1667 9.04611 17.1658 9.00213 17.1641 8.95828H3.83642C3.83436 9.00605 3.83333 9.05398 3.83333 9.10203V14.3749H11.5283C11.621 14.2494 11.7245 14.1289 11.8389 14.0145L13.6814 12.172C14.634 11.2195 16.0098 11.0246 17.1667 11.4962V9.09019ZM11.125 11.0416V9.99995C11.125 9.65477 10.8452 9.37495 10.5 9.37495C10.1548 9.37495 9.87499 9.65477 9.87499 9.99995V11.0416H8.83333C8.48815 11.0416 8.20833 11.3214 8.20833 11.6666C8.20833 12.0118 8.48815 12.2916 8.83333 12.2916H9.87499V13.3333C9.87499 13.6785 10.1548 13.9583 10.5 13.9583C10.8452 13.9583 11.125 13.6785 11.125 13.3333V12.2916H12.1667C12.5118 12.2916 12.7917 12.0118 12.7917 11.6666C12.7917 11.3214 12.5118 11.0416 12.1667 11.0416H11.125Z" fill="#0E74BC"/>
<path d="M10.9774 15.6249C10.7928 16.5593 11.0322 17.5602 11.6538 18.3333H7.9641C7.48818 18.3333 7.25021 18.3333 7.02463 18.3023C6.35551 18.2105 5.73006 17.9175 5.23114 17.4623C5.06294 17.3088 4.9106 17.126 4.60592 16.7604C4.32516 16.4235 4.11583 16.0372 3.98639 15.6249H10.9774Z" fill="#0E74BC"/>
</svg>
