<svg width="20" height="20" viewBox="0 0 20 20" fill="none" xmlns="http://www.w3.org/2000/svg">
<g clip-path="url(#clip0_4591_7274)">
<path d="M12.0875 14.6004L11.0633 11.5273L8.71952 16.2148L7.39999 12.2566L6.72695 12.9297H2.48203C2.96027 15.9154 5.2312 20 8.24218 20C8.82812 20 9.41796 19.8375 9.99999 19.5164C10.582 19.8375 11.1719 20 11.7578 20C14.7682 20 17.0394 15.9172 17.518 12.9297H13.7582L12.0875 14.6004Z" fill="#53ADED"/>
<path d="M7.9125 10.0871L8.93672 13.1602L11.2805 8.47266L12.6 12.4309L13.273 11.7578H17.6172C17.6172 8.52695 14.9887 5.89844 11.7578 5.89844C11.3699 5.89844 10.982 5.94141 10.5859 6.02891V4.6875H11.1719C13.4336 4.6875 15.2734 2.84766 15.2734 0.585938V0H13.5156C12.1117 0 10.8703 0.708984 10.1312 1.7875C10.1312 1.78758 10.1311 1.7877 10.1311 1.78777C9.52664 0.721289 8.38121 0 7.07031 0V1.17188C8.36266 1.17188 9.41406 2.22328 9.41406 3.51562V6.02891C9.01797 5.94141 8.63008 5.89844 8.24219 5.89844C5.01133 5.89844 2.38281 8.52695 2.38281 11.7578H6.2418L7.9125 10.0871Z" fill="#0E74BC"/>
</g>
<defs>
<clipPath id="clip0_4591_7274">
<rect width="20" height="20" fill="white"/>
</clipPath>
</defs>
</svg>
