<svg width="21" height="20" viewBox="0 0 21 20" fill="none" xmlns="http://www.w3.org/2000/svg">
<path d="M5.71659 17.8237H5.49998C4.71431 17.8237 4.32147 17.8237 4.07739 17.5796C3.83331 17.3355 3.83331 16.9427 3.83331 16.157V15.2304C3.83331 14.7983 3.83331 14.5822 3.9443 14.3893C4.05528 14.1964 4.22271 14.099 4.55756 13.9042C6.76212 12.622 9.89294 11.9003 11.9825 13.1466C12.1229 13.2303 12.2492 13.3314 12.3571 13.4526C12.8222 13.975 12.7883 14.7634 12.2523 15.2312C12.1391 15.33 12.0184 15.405 11.8969 15.431C11.9968 15.4194 12.0925 15.4062 12.1838 15.3916C12.9433 15.2705 13.5808 14.8646 14.1645 14.4237L15.6705 13.286C16.2014 12.885 16.9894 12.8849 17.5204 13.2859C17.9985 13.6468 18.1446 14.2412 17.8424 14.7256C17.49 15.2906 16.9934 16.0133 16.5166 16.4549C16.0391 16.8972 15.3282 17.292 14.7479 17.5721C14.105 17.8824 13.3948 18.0612 12.6724 18.1781C11.2074 18.4153 9.68045 18.3791 8.23025 18.0803C7.41042 17.9114 6.55897 17.8237 5.71659 17.8237Z" fill="#0E74BC"/>
<path d="M9.55108 2.80287C9.97329 2.04546 10.1844 1.66675 10.5 1.66675C10.8156 1.66675 11.0268 2.04546 11.449 2.80287L11.5582 2.99883C11.6782 3.21406 11.7382 3.32168 11.8317 3.39268C11.9252 3.46369 12.0417 3.49005 12.2747 3.54276L12.4868 3.59076C13.3067 3.77627 13.7167 3.86902 13.8142 4.18266C13.9117 4.4963 13.6323 4.8231 13.0733 5.47672L12.9287 5.64582C12.7699 5.83156 12.6905 5.92443 12.6547 6.03932C12.619 6.15421 12.631 6.27812 12.655 6.52593L12.6769 6.75155C12.7614 7.62361 12.8036 8.05965 12.5483 8.25349C12.293 8.44733 11.9091 8.2706 11.1415 7.91714L10.9429 7.82569C10.7247 7.72525 10.6156 7.67503 10.5 7.67503C10.3844 7.67503 10.2753 7.72525 10.0572 7.82569L9.85858 7.91714C9.09091 8.2706 8.70708 8.44733 8.45174 8.25349C8.19639 8.05965 8.23865 7.62361 8.32315 6.75155L8.34502 6.52593C8.36903 6.27812 8.38104 6.15421 8.34531 6.03932C8.30958 5.92443 8.23016 5.83156 8.07133 5.64582L7.92672 5.47672C7.36777 4.82311 7.0883 4.4963 7.18583 4.18266C7.28336 3.86902 7.69331 3.77627 8.5132 3.59076L8.72532 3.54276C8.9583 3.49005 9.0748 3.46369 9.16834 3.39268C9.26187 3.32168 9.32186 3.21406 9.44184 2.99883L9.55108 2.80287Z" fill="#53ADED"/>
<path d="M16.6922 6.40148C16.9033 6.02277 17.0089 5.83341 17.1667 5.83341C17.3245 5.83341 17.4301 6.02277 17.6412 6.40148L17.6958 6.49945C17.7558 6.60707 17.7858 6.66088 17.8325 6.69638C17.8793 6.73189 17.9375 6.74506 18.054 6.77142L18.1601 6.79542C18.57 6.88817 18.775 6.93455 18.8238 7.09137C18.8726 7.24819 18.7328 7.41159 18.4533 7.7384L18.381 7.82295C18.3016 7.91582 18.2619 7.96226 18.244 8.0197C18.2262 8.07715 18.2322 8.1391 18.2442 8.26301L18.2551 8.37581C18.2974 8.81185 18.3185 9.02987 18.1908 9.12678C18.0632 9.2237 17.8712 9.13534 17.4874 8.95861L17.3881 8.91289C17.279 8.86267 17.2245 8.83756 17.1667 8.83756C17.1089 8.83756 17.0543 8.86267 16.9453 8.91289L16.846 8.95861C16.4621 9.13534 16.2702 9.2237 16.1425 9.12678C16.0149 9.02987 16.036 8.81185 16.0783 8.37581L16.0892 8.26301C16.1012 8.1391 16.1072 8.07715 16.0893 8.0197C16.0715 7.96226 16.0318 7.91582 15.9523 7.82295L15.88 7.7384C15.6006 7.41159 15.4608 7.24819 15.5096 7.09137C15.5584 6.93455 15.7633 6.88817 16.1733 6.79542L16.2793 6.77142C16.3958 6.74507 16.4541 6.73189 16.5008 6.69638C16.5476 6.66088 16.5776 6.60707 16.6376 6.49945L16.6922 6.40148Z" fill="#53ADED"/>
<path d="M3.35888 6.40148C3.56999 6.02277 3.67554 5.83341 3.83335 5.83341C3.99116 5.83341 4.09672 6.02277 4.30783 6.40148L4.36244 6.49945C4.42243 6.60707 4.45243 6.66088 4.4992 6.69638C4.54597 6.73189 4.60421 6.74506 4.72071 6.77142L4.82676 6.79542C5.23671 6.88817 5.44168 6.93455 5.49045 7.09137C5.53922 7.24819 5.39948 7.41159 5.12 7.7384L5.0477 7.82295C4.96828 7.91582 4.92857 7.96226 4.91071 8.0197C4.89285 8.07715 4.89885 8.1391 4.91086 8.26301L4.92179 8.37581C4.96404 8.81185 4.98517 9.02987 4.8575 9.12678C4.72982 9.2237 4.53791 9.13534 4.15408 8.95861L4.05477 8.91289C3.9457 8.86267 3.89116 8.83756 3.83335 8.83756C3.77554 8.83756 3.72101 8.86267 3.61193 8.91289L3.51263 8.95861C3.1288 9.13534 2.93688 9.2237 2.80921 9.12678C2.68154 9.02987 2.70267 8.81185 2.74492 8.37581L2.75585 8.26301C2.76786 8.1391 2.77386 8.07715 2.756 8.0197C2.73813 7.96226 2.69842 7.91582 2.61901 7.82295L2.5467 7.7384C2.26723 7.41159 2.12749 7.24819 2.17626 7.09137C2.22502 6.93455 2.43 6.88817 2.83994 6.79542L2.946 6.77142C3.0625 6.74507 3.12074 6.73189 3.16751 6.69638C3.21428 6.66088 3.24427 6.60707 3.30426 6.49945L3.35888 6.40148Z" fill="#53ADED"/>
</svg>
